<?xml version="1.0" encoding="UTF-8" standalone="no"?>
<!DOCTYPE svg PUBLIC "-//W3C//DTD SVG 1.1//EN" "http://www.w3.org/Graphics/SVG/1.1/DTD/svg11.dtd">
<svg width="100%" height="100%" viewBox="0 0 293 111" version="1.1" xmlns="http://www.w3.org/2000/svg" xmlns:xlink="http://www.w3.org/1999/xlink" xml:space="preserve" xmlns:serif="http://www.serif.com/" style="fill-rule:evenodd;clip-rule:evenodd;stroke-linejoin:round;stroke-miterlimit:2;">
    <g transform="matrix(1,0,0,1,-427.558,-76)">
        <g transform="matrix(1,0,0,1.77083,-1,3.54167)">
            <g transform="matrix(0.569721,-3.48027e-33,-1.84889e-32,0.321725,90.7522,-107.225)">
                <g transform="matrix(0.385919,8.34939e-33,8.34939e-33,0.385919,519,410.472)">
                    <path d="M381.977,141.897C380.211,143.186 377.817,143.614 375.729,143.967C369.211,145.068 362.051,145.09 355.438,145.25C348.374,145.42 341.254,145.563 334.206,144.961C326.647,144.316 319.165,142.896 311.607,142.335C298.845,141.387 285.919,141.564 273.13,141.632C267.983,141.659 262.014,141.639 256.393,140.859C256.305,141.204 256.113,141.502 255.782,141.719C254.788,142.373 253.339,142.409 252.202,142.633C250.022,143.064 247.889,143.61 245.693,143.963C237.983,145.201 230.306,146.283 222.539,147.118C219.742,147.419 216.942,147.653 214.13,147.471C213.431,147.425 211.723,147.063 211.352,147.992C210.741,149.523 210.913,151.704 211.04,153.275C211.282,156.261 211.75,159.238 212.171,162.203C212.774,166.453 213.846,170.736 213.872,175.038C213.91,181.616 212.133,187.876 210.678,194.232C210.085,196.819 210.075,199.507 209.383,202.07C209.194,202.768 208.958,203.41 208.678,203.999C208.678,204.033 208.678,204.067 208.679,204.1C208.726,206.126 209.056,208.404 208.898,210.412C208.843,211.104 207.55,211.724 207.181,210.962C206.668,209.901 206.353,208.492 206.207,207.167C206.078,207.27 205.946,207.37 205.81,207.466C205.925,208.54 205.721,209.68 205.794,210.732C206.041,214.294 206.417,217.83 206.465,221.407C206.53,226.214 205.862,230.939 205.835,235.718C205.811,239.961 206.432,244.225 206.379,248.444C206.353,250.615 205.941,252.742 205.691,254.891C205.408,257.317 206.393,259.915 205.753,262.281C205.55,263.032 205.181,264.021 204.707,264.99C205.153,274.831 204.529,284.836 204.274,294.654C204.104,301.17 204.6,307.682 204.274,314.198C204.165,316.368 205.383,318.287 205.309,320.378C205.721,321.761 205.374,323.739 205.385,325.068C205.411,328.168 205.856,331.236 205.898,334.328C205.942,337.439 206.208,340.761 205.866,343.857C205.531,346.898 204.586,349.876 204.547,352.95C204.504,356.325 204.897,359.708 204.812,363.08C204.743,365.871 204.259,368.619 204.287,371.416C204.322,374.856 204.943,378.227 204.591,381.674C204.383,383.703 204.616,386.185 204.553,388.512C204.879,390.176 204.832,391.989 204.859,393.616C204.926,397.506 204.847,401.385 204.898,405.263C205.077,418.914 205.602,432.723 204.464,446.279C204.13,450.262 205.411,454.062 204.348,457.592C204.586,458.04 204.755,458.515 204.836,459.002C205.685,464.091 204.202,468.821 203.908,473.796C203.78,475.974 204.588,478.189 204.589,480.407C204.589,482.048 204.8,483.696 204.639,485.333C204.567,486.06 204.175,486.995 204.922,487.546C205.579,488.029 207.133,487.766 207.906,487.836C210.714,488.093 213.438,488.327 216.253,488.012C220.653,487.519 224.877,488.2 229.269,488.216C232.402,488.227 235.494,487.646 238.625,488.009C240.787,488.259 242.95,488.415 245.102,488.749C251.831,487.984 258.7,488.452 265.421,488.565C267.803,488.605 270.126,488.918 272.52,488.713C279.326,488.131 286.414,488.136 293.252,488.345C294.721,488.391 296.261,488.647 297.726,488.487C299.358,488.308 300.878,487.727 302.538,487.597C305.6,487.357 308.64,487.467 311.705,487.429C313.58,487.406 317.32,486.367 318.78,487.951C318.889,488.068 318.966,488.216 319.018,488.385C323.18,488.044 327.379,486.684 331.565,486.564C338.377,486.368 345.234,486.613 352.058,486.504C356.189,486.437 360.304,485.916 364.436,485.941C367.245,485.959 370.028,486.476 372.834,486.475C375.301,486.474 377.697,485.759 380.14,485.652C383.879,485.487 387.66,485.866 391.407,485.827C397.227,485.767 402.893,486.124 408.694,486.46C410.552,486.568 412.436,486.369 413.509,487.23C413.911,487.068 414.321,486.938 414.751,486.886C419.11,486.36 423.962,487.33 428.302,487.709C435.012,488.295 441.802,488.544 448.538,488.605C454.058,488.655 459.531,489.203 465.015,489.604C465.574,489.48 466.135,489.354 466.704,489.347C471.308,489.289 475.904,489.767 480.499,489.75C487.91,489.723 495.332,489.269 502.747,489.338C512.316,489.426 521.87,490.261 531.453,490.153C533.532,490.13 535.68,490.089 537.737,489.747C538.823,489.567 539.812,489.106 540.924,489.058C545.446,488.861 549.957,489.438 554.478,489.512C559.286,489.59 564.083,489.215 568.887,489.396C577.613,489.726 586.312,489.826 595.053,489.99C596.137,490.01 598.944,489.764 600.826,490.261C602.525,490.006 604.223,489.731 605.938,489.597C609.084,489.351 612.27,489.555 615.422,489.537C618.142,489.521 620.854,489.26 623.573,489.346C629.073,489.521 634.538,490.605 640.034,490.69C643.576,490.745 647.061,490.226 650.587,490.049C655.811,489.788 660.987,489.807 666.204,489.307C668.609,489.077 671.032,489.175 673.443,488.995C676.393,488.775 679.395,488.315 682.35,488.312C683.424,488.31 684.494,488.374 685.335,488.715C691.034,487.073 697.649,488.559 703.321,489.174C705.304,489.389 707.283,489.266 709.267,489.382C714.278,489.677 719.492,489.824 724.508,489.507C726.729,489.367 728.942,489.081 731.172,489.107C733.685,489.136 736.189,489.464 738.704,489.43C740.587,489.404 742.437,488.994 744.317,488.93C747.065,488.835 749.806,488.98 752.561,488.852C757.285,488.632 762.036,488.825 766.77,488.631C772.072,488.413 776.989,487.809 782.282,488.506C783.188,488.625 784.102,488.705 785.016,488.79C786.134,488.432 787.663,488.349 788.786,488.321C791.072,488.263 793.411,488.631 795.697,488.746C799.553,488.94 803.434,488.967 807.295,489.044C817.209,489.241 827.116,489.617 837.034,489.355C844.406,489.16 851.797,488.31 859.16,488.366C861.767,488.387 864.381,488.407 866.992,488.449C868.527,487.964 870.071,487.486 871.659,487.249C874.998,486.751 878.352,486.826 881.718,486.753C887.915,486.62 894.146,486.674 900.334,486.471C902.599,486.396 904.844,486.02 907.108,485.949C909.665,485.869 912.219,486.161 914.777,486.139C918.849,486.105 922.912,485.735 926.982,485.627C930.347,485.538 933.706,485.758 937.072,485.654C942.689,485.481 948.252,484.664 953.881,484.705C958.876,484.741 963.865,484.742 968.86,484.76C970.31,484.766 971.79,484.696 973.263,484.692C976.057,484.127 978.844,483.531 981.707,483.566C986.545,483.626 991.509,483.667 996.325,484.079C1002.88,484.641 1009.42,485.656 1015.98,486.269C1018.82,486.534 1021.67,486.401 1024.51,486.69C1027.17,486.961 1029.8,487.57 1032.47,487.805C1033.33,487.637 1034.16,487.452 1034.86,487.374C1038.65,486.949 1042.5,487.132 1046.31,487.168C1057.85,487.279 1069.32,487.403 1080.86,486.814C1084.81,486.612 1088.87,487.163 1092.79,486.538C1098.7,485.595 1104.87,485.421 1110.84,486.106C1111.37,486.166 1111.92,486.213 1112.48,486.276C1112.73,486.254 1112.96,486.232 1113.18,486.203C1118.94,485.448 1124.45,486.828 1130.12,487.675C1132.83,488.081 1135.62,487.918 1138.35,488.152C1146.37,488.839 1154.39,489.362 1162.41,489.871C1166.37,490.123 1170.32,490.195 1174.26,490.39C1175.87,490.2 1177.49,490.024 1179.09,489.903C1184.1,489.524 1189.21,489.937 1194.22,489.962C1204.78,490.016 1215.36,490.631 1225.91,490.831C1235,491.003 1244.14,490.71 1253.22,491.066C1255.9,491.17 1258.57,491.509 1261.25,491.535C1263.46,491.555 1265.37,491.104 1267.64,491.515C1268.36,491.646 1269.29,491.779 1270.15,492.051C1278.66,490.704 1287.26,491.621 1295.89,491.808C1298.02,491.854 1300.09,491.392 1302.21,491.414C1304.66,491.439 1307.07,491.912 1309.51,491.965C1311.62,492.01 1313.71,491.556 1315.82,491.557C1321.95,491.56 1328.09,491.93 1334.22,491.997C1335.76,492.013 1337.28,492.194 1338.8,492.38C1351.95,492.248 1365.1,491.507 1378.25,491.429C1387.83,491.372 1397.33,492.354 1406.89,492.484C1427.33,492.762 1447.75,492.504 1468.17,493.224C1478.63,493.593 1489.19,493.539 1499.65,493.642C1501.17,493.657 1505.22,493.295 1507.5,494.091C1508.14,494.025 1508.8,494.022 1509.39,493.955C1511.9,493.671 1513.83,493.054 1515.17,490.745C1516.34,488.746 1516.07,487.028 1516.25,484.819C1516.33,483.922 1516.66,483.078 1516.83,482.2C1516.96,481.509 1516.01,476.549 1516.36,475.921C1516.46,475.734 1516.52,470.884 1516.24,466.935C1516.12,465.315 1516.4,463.69 1516.27,462.071C1515.52,452.768 1516.4,443.665 1516.36,434.358C1516.35,432.078 1515.79,429.851 1515.75,427.574C1515.67,422.976 1516.36,418.486 1516.34,413.916C1516.33,411.522 1515.76,409.165 1515.71,406.774C1515.67,404.156 1516.12,401.54 1516.02,398.931C1515.98,397.825 1515.56,396.711 1515.56,395.62C1515.56,395.62 1515.88,391.448 1516.04,389.434C1516.1,388.64 1516.09,387.844 1516.07,387.049C1515.98,384.364 1516.03,381.699 1515.99,379.016C1515.91,373.926 1515.88,368.674 1516.73,363.629C1517.11,361.414 1517.86,359.377 1518.46,357.227C1518.99,355.283 1518.86,353.436 1518.88,351.424C1518.89,350.882 1518.9,350.34 1518.95,349.8C1518.95,349.723 1518.94,349.29 1519.04,349.25C1519.12,349.218 1519.33,350.347 1519.35,350.422C1519.55,351.517 1519.56,352.902 1520.08,353.905C1521.19,356.05 1521.22,358.133 1521.33,360.529C1521.42,362.488 1521.55,364.438 1521.67,366.395C1521.95,370.666 1522.39,374.8 1522.19,379.069C1521.91,384.923 1522.9,390.763 1523.01,396.607C1523.05,396.704 1523.09,396.806 1523.12,396.912C1523.93,399.376 1523.23,403.114 1523.2,405.682C1523.17,408.713 1523.72,411.639 1523.81,414.642C1523.87,417.005 1523.47,419.371 1523.47,421.739C1523.47,423.575 1522.3,427.375 1522.59,429.183C1522.69,429.791 1522.59,431.183 1522.59,431.183C1522.09,435.7 1522.56,438.076 1522.1,442.559C1521.71,446.41 1522.48,450.258 1522.52,454.101C1522.57,460.558 1522.15,466.957 1522.59,473.409C1522.74,475.709 1522.08,479.618 1522.17,479.753C1523.07,480.996 1522.24,483.974 1522.22,485.424C1522.18,488.326 1522.27,492.217 1520.66,494.784C1518.92,497.556 1514.03,499.057 1511.09,499.598C1508.9,499.999 1506.93,500.542 1504.68,500.006C1504.47,499.955 1504.26,499.898 1504.06,499.83C1503.14,500.091 1502.3,500.238 1501.75,500.262C1498.74,500.391 1495.73,499.866 1492.71,499.971C1485.59,500.219 1478.37,501.076 1471.24,500.722C1441.65,499.25 1411.83,499.134 1382.19,498.565C1373.98,498.407 1365.71,498.305 1357.49,498.338C1354.54,498.35 1351.58,499.232 1348.65,498.936C1347.57,498.828 1346.51,498.534 1345.44,498.188C1341.97,498.484 1338.46,498.641 1335.03,498.484C1330.71,498.286 1326.41,498.595 1322.1,498.434C1319.33,498.331 1316.59,497.777 1313.82,497.761C1310.83,497.745 1307.85,498.155 1304.85,498.187C1301.41,498.224 1297.99,497.906 1294.55,497.802C1290.84,497.69 1287.15,497.861 1283.42,497.674C1280.17,497.511 1276.89,497.467 1273.63,497.476C1271.85,497.48 1270.2,497.543 1268.53,497.425C1267.6,497.808 1266.6,498.045 1265.57,498.2C1262.97,498.591 1260.29,498.247 1257.67,498.253C1251.28,498.267 1244.89,498.076 1238.5,498.018C1235.07,497.987 1231.65,498.213 1228.23,497.882C1223.36,497.413 1218.6,496.345 1213.7,496.26C1207.18,496.147 1200.69,497.154 1194.16,496.889C1191.23,496.77 1188.25,496.678 1185.32,496.356C1181.93,496.774 1178.77,497.186 1175.21,496.754C1172.35,496.407 1169.47,496.536 1166.6,496.44C1153.87,496.015 1141.12,497.213 1128.4,496.565C1127.21,496.504 1126.01,496.416 1124.82,496.378C1123.91,496.349 1123.01,496.33 1122.11,496.32C1120.3,496.3 1117.23,496.325 1114.88,495.506C1114.84,495.526 1114.8,495.544 1114.77,495.563C1110.52,497.62 1105.27,496.302 1100.8,496.106C1093.92,495.805 1086.96,496.059 1080.07,496.074C1077.83,496.079 1075.6,495.736 1073.36,495.793C1069.1,495.903 1064.77,496.54 1060.52,496.437C1057.34,496.361 1054.2,495.816 1051.03,495.595C1048.33,495.406 1045.41,495.56 1042.57,495.394C1040.48,495.54 1038.38,495.592 1036.21,495.549C1032.06,495.466 1027.99,496.279 1023.86,496.283C1020.32,496.286 1016.82,495.534 1013.28,495.474C1005.15,495.336 996.99,495.767 988.865,495.564C984.808,495.462 980.791,494.911 976.745,494.679C976.483,494.664 976.191,494.659 975.885,494.653C973.793,495.084 971.573,495.102 969.456,495.21C965.605,495.406 961.762,495.56 957.908,495.36C952.76,495.092 947.622,495.444 942.473,495.412C934,495.359 925.523,495.013 917.054,495.003C908.256,494.993 899.522,495.285 890.718,494.907C887.022,494.749 883.273,494.421 879.579,494.39C877.7,494.374 875.851,494.617 873.957,494.566C872.989,494.539 871.777,494.697 870.673,494.577C866.191,494.674 861.706,495.37 857.217,495.485C853.355,495.585 849.485,494.893 845.61,494.901C841.259,494.909 836.904,494.583 832.555,494.657C829.055,494.716 825.6,495.047 822.087,494.924C812.974,494.604 803.916,494.791 794.812,494.675C793.654,494.661 792.427,494.584 791.279,494.782C789.191,495.143 787.317,495.998 785.439,494.746C784.093,494.907 782.717,494.859 781.366,494.929C778.021,495.102 774.68,495.256 771.334,495.42C767.967,495.585 764.673,495.312 761.325,495.333C751.725,495.393 742.169,495.199 732.577,494.996C730.124,494.944 727.674,495.336 725.217,495.266C722.852,495.199 720.497,494.719 718.128,494.804C715.383,494.903 712.689,495.38 709.932,495.386C707.605,495.391 705.248,495.01 702.925,495.182C698.383,495.518 693.339,496.535 688.807,495.726C687.571,495.506 685.547,495.424 684.137,494.761C683.238,494.949 682.236,494.971 681.3,494.982C678.471,495.017 675.74,495.691 672.919,495.845C670.565,495.973 668.22,495.64 665.883,495.417C662.417,495.087 659.257,496.122 655.83,496.155C649.82,496.213 643.786,495.555 637.779,495.664C631.554,495.777 625.353,496.692 619.102,496.59C615.025,496.522 610.949,496.305 606.871,496.283C604.61,496.27 602.391,496.648 600.139,496.247C599.911,496.206 599.698,496.156 599.498,496.095C598.382,496.487 597.079,496.616 595.763,496.693C593.738,496.813 591.765,496.522 589.756,496.54C585.397,496.579 581.139,496.771 576.772,496.642C574.923,496.587 573.076,496.931 571.238,496.858C569.018,496.769 566.82,496.356 564.592,496.439C563.237,496.489 561.943,496.877 560.6,496.958C556.303,497.217 551.919,497.261 547.613,497.313C545.051,497.344 542.507,496.972 539.947,496.93C532.045,496.798 524.1,496.9 516.194,497.051C513.845,497.096 511.535,497.825 509.17,497.881C506.89,497.935 504.834,497.461 502.681,497.003C501.26,497.351 499.878,497.798 498.436,497.955C495.732,498.251 492.933,497.797 490.229,497.674C486.171,497.49 482.243,498.165 478.216,498.087C473.185,497.988 468.141,497.413 463.095,497.297C460.061,497.227 457.076,497.662 454.064,497.681C451.164,497.7 448.262,497.241 445.361,497.176C441.61,497.093 437.85,497.397 434.1,497.442C430.576,497.484 427.098,498.14 423.578,498.213C421.078,498.265 418.549,497.813 416.052,497.686C413.831,497.572 411.78,497.833 410.175,497.034C406.633,498.452 401.735,497.275 398.01,497.57C390.642,498.155 383.312,497.78 375.943,497.844C372.557,497.873 369.207,498.484 365.833,498.524C363.621,498.55 361.418,498.243 359.208,498.286C356.985,498.329 354.758,498.711 352.539,498.692C350.225,498.673 347.952,498.233 345.633,498.272C343.409,498.309 341.197,498.801 338.988,498.8C336.106,498.798 333.237,498.199 330.356,498.106C326.051,497.967 321.739,498.358 317.452,498.333C316.727,498.329 315.625,498.357 314.741,498.155C314.077,498.527 313.314,498.75 312.44,498.771C309.747,498.834 307.105,499.331 304.428,499.398C300.369,499.499 296.273,499.13 292.224,499.31C290.284,499.396 288.381,499.921 286.448,499.971C284.164,500.029 281.865,499.483 279.539,499.523C273.523,499.627 267.569,500.217 261.569,499.548C257.617,499.107 253.391,499.228 249.416,499.305C248.377,499.325 246.811,499.56 245.509,499.394C245.085,499.652 244.611,499.843 244.08,499.948C242.84,500.194 241.537,499.92 240.281,499.937C236.901,499.983 233.548,499.853 230.161,499.791C224.327,499.685 218.407,499.681 212.555,499.791C208.718,499.864 204.479,500.447 200.219,499.069C198.211,498.42 195.629,496.092 194.582,494.101C192.818,490.75 193.69,486.43 193.615,482.851C193.474,476.159 192.85,469.409 192.838,462.731C192.837,461.902 193.101,461.098 193.288,460.293C191.729,456.999 193.718,451.709 193.844,448.252C193.94,445.618 193.223,442.934 193.011,440.315C192.606,435.322 192.314,430.226 192.293,425.214C192.267,418.992 194.123,413.108 193.705,406.829C193.445,402.916 193.008,398.711 193.072,394.798C193.075,394.606 193.283,393.286 193.402,392.313C193.293,391.28 193.317,390.117 193.198,388.938C192.842,385.426 192.585,382.086 192.89,378.552C193.337,373.351 192.091,368.064 192.334,362.817C192.695,355.028 194.134,347.408 194.633,339.655C194.987,334.172 194.571,328.645 194.57,323.16C194.085,322.97 193.671,322.704 193.483,322.299C192.861,320.957 193.501,319.149 193.492,317.708C193.468,313.684 193.364,309.84 193.653,305.797C194.276,297.115 193.608,288.457 193.106,279.799C192.91,276.414 193.072,273.233 193.457,269.879C193.486,269.626 193.87,267.673 193.883,267.091C193.513,266.72 193.205,266.303 192.98,265.843C192.052,263.942 192.718,261.461 192.837,259.461C193.032,256.151 192.843,252.801 192.717,249.49C192.506,243.926 193.518,238.578 193.706,233.05C193.974,225.133 193.346,217.139 193.346,209.205L193.677,209.133C193.793,209.02 193.91,208.909 194.028,208.799C193.903,208.739 193.781,208.674 193.661,208.602C191.67,207.409 192.729,203.737 192.796,202.002C193.032,195.854 193.626,189.424 193.335,183.287C193.16,179.597 192.204,176.135 191.889,172.493C191.636,169.569 191.444,166.304 191.679,163.374C191.904,160.562 192.673,157.8 192.919,154.984C193.273,150.933 192.665,146.882 193.12,142.834C193.315,141.101 193.993,139.722 194.441,138.106C194.929,136.349 194.935,134.435 196.223,133.008C197.098,132.038 199.481,130.867 200.675,130.345C203.121,129.275 206.508,129.526 209.091,129.67C212.781,129.877 216.434,130.004 220.13,129.848C225.784,129.61 231.409,129.754 237.065,129.78C238.445,129.787 239.822,129.873 241.202,129.891C241.312,129.892 242.172,129.828 242.425,129.876C242.25,129.912 242.083,129.965 241.926,130.039L242.493,129.905C242.487,129.893 242.463,129.883 242.425,129.876C243.313,129.695 244.396,129.968 245.277,130.258C247.862,130.135 250.471,130.083 253.047,130.024C267.307,129.701 281.58,130.301 295.824,130.695C313.193,131.174 330.584,130.043 347.935,130.592C351.527,130.706 355.028,130.922 358.558,131.429C358.929,131.291 359.321,131.171 359.734,131.073C363.013,130.295 366.708,130.829 370.046,130.869C377.112,130.954 384.154,131.215 391.214,131.553C399.953,131.97 408.573,131.462 417.292,131.366C433.57,131.186 449.715,131.477 465.981,131.771C476.857,131.967 487.776,131.703 498.643,132.081C504.61,132.289 510.548,133.102 516.512,133.42C520.188,133.616 524.018,133.515 527.825,133.547C529.394,133.2 531.11,133.171 532.112,133.204C542.902,133.56 553.712,132.893 564.501,132.836C573.18,132.79 581.867,132.553 590.546,132.42C607.468,132.161 624.469,133.887 641.375,132.843C655.279,131.984 669.229,133.78 683.135,133.638C692.154,133.545 701.043,133.341 710.031,134.202C711.416,134.335 712.958,134.309 714.478,134.365C716.578,133.428 719.277,133.551 722.183,133.568C723.541,133.576 724.899,133.596 726.258,133.61C727.861,133.626 729.463,133.675 731.066,133.706C733.086,133.746 735.105,133.746 737.125,133.717C739.688,133.679 742.251,133.585 744.814,133.592C745.636,133.594 746.457,133.592 747.279,133.599C748.073,133.605 749.584,133.48 751.061,133.585C756.061,133.522 761.086,133.452 766.07,133.649C770.035,133.805 773.986,134.285 777.955,134.32C789.278,134.421 800.601,134.007 811.931,134.197C825.917,134.431 839.959,135.11 853.944,134.784C861.492,134.608 868.988,134.933 876.522,134.874C882.87,134.824 889.278,134.999 895.614,134.595C898.487,134.411 902.087,133.029 905.044,133.808C905.191,133.638 908.893,133.484 910.153,133.59C913.32,133.854 916.47,133.696 919.642,133.685C932.311,133.639 944.958,135.197 957.629,135.097C961.136,135.069 964.545,135.26 968.063,134.982C968.952,134.912 969.979,134.922 970.934,134.788C971.141,134.573 971.371,134.4 971.625,134.285L971.58,134.406C971.775,134.58 972.657,134.454 972.894,134.456C974.177,134.468 975.449,134.499 976.729,134.598C982.145,135.016 987.38,134.769 992.797,134.823C996.727,134.862 1000.66,135.213 1004.59,135.176C1015.67,135.073 1026.72,134.38 1037.81,134.525C1043.34,134.597 1048.83,135.172 1054.35,135.423C1056.4,135.516 1058.34,134.996 1060.37,134.906C1062.5,134.811 1064.64,135.272 1066.77,135.39C1068.76,135.5 1070.73,135.267 1072.72,135.548C1073.26,135.625 1073.87,135.722 1074.47,135.863C1077.25,135.78 1080.03,135.677 1082.85,135.321C1103.63,132.692 1125.06,133.838 1145.95,134.381C1152.15,134.542 1158.28,133.634 1164.49,133.935C1166.31,134.024 1168.11,134.284 1169.94,134.248C1170.24,134.242 1170.73,134.301 1171.16,134.284C1173.63,133.311 1177.33,133.827 1179.74,133.828C1185.14,133.828 1190.48,133.321 1195.86,133.28C1204.18,133.217 1212.52,133.607 1220.84,133.641C1224.52,133.657 1228.58,133.772 1232.13,134.847C1233.62,135.296 1235.26,136.039 1235.67,137.668C1236.04,139.092 1236.72,141.422 1236.41,142.848C1236.09,144.286 1234.87,145.007 1233.79,145.823C1231.8,147.337 1229.61,148.627 1227.68,150.216C1223.91,153.323 1220.4,156.893 1216.45,159.764C1214.26,161.353 1212.05,163.095 1209.8,164.58C1208.37,165.523 1206.78,166.234 1205.52,167.413C1204.39,168.462 1203.7,169.856 1202.66,170.975C1201.37,172.371 1199.82,173.456 1198.61,174.947C1197.71,176.056 1196.69,178.234 1195.3,178.798C1194.99,178.928 1194.65,179.028 1194.31,179.103C1194.33,179.159 1194.35,179.218 1194.35,179.28L1194.3,179.802C1192.02,181.563 1190.54,183.771 1188.53,185.776C1185.67,188.632 1182.51,191.245 1179.77,194.219C1178.23,195.898 1176.73,197.781 1175.42,199.645C1174.26,201.286 1173.24,203.037 1171.73,204.387C1170.77,205.252 1169.52,205.899 1168.66,206.867C1168.1,207.497 1167.85,208.624 1167.03,209.001C1166.91,209.054 1166.79,209.101 1166.67,209.142C1166.47,209.988 1166.08,210.826 1165.64,211.582C1165.25,212.257 1164.74,212.845 1164.49,213.595C1164.44,213.739 1164.25,214.161 1164.39,214.293C1164.55,214.439 1164.83,214.106 1164.92,214.004C1165.35,213.473 1165.74,212.933 1166.26,212.48C1167.64,211.301 1169.32,209.596 1171.23,209.443L1171.24,209.398C1172.19,209.398 1172.67,208.407 1173.36,207.971C1173.97,207.577 1174.76,207.46 1175.4,207.091C1176.67,206.362 1177.78,205.38 1179.01,204.586C1179.64,204.178 1180.28,203.767 1180.92,203.359C1189.54,194.457 1201.22,189.456 1211.95,183.676C1216.52,181.216 1220.58,177.807 1225.19,175.457C1234.49,170.718 1244.06,166.065 1253.73,162.144C1260.58,159.367 1267.66,157.094 1274.56,154.417C1282.53,151.323 1291.33,149.78 1299.66,148.112C1300.25,147.994 1300.84,147.871 1301.43,147.748C1302.37,147.553 1305.3,146.392 1306.97,146.653C1308.26,146.271 1309.58,145.739 1310.57,145.509C1314.95,144.483 1319.47,143.812 1323.91,143.077C1327.97,142.404 1332.06,141.98 1336.12,141.299C1340.14,140.625 1344.09,139.741 1348.15,139.312C1354.77,138.614 1361.35,138.567 1367.98,138.162C1373.15,137.846 1378.3,137.473 1383.48,137.384C1384.45,137.368 1386.27,137.228 1387.38,137.826C1389.84,137.741 1392.56,138.259 1394.89,138.219C1403.79,138.068 1412.67,138.393 1421.55,138.903C1428.16,139.283 1434.68,139.158 1441.29,139.304C1447.04,139.43 1452.79,139.864 1458.54,140.007C1462.61,140.108 1466.67,140.227 1470.74,140.171C1472.13,140.152 1473.49,140.346 1474.88,140.402C1475.35,140.421 1475.82,140.436 1476.29,140.463C1476.35,140.467 1477.02,140.582 1477,140.601C1476.4,141.138 1474.32,141.055 1473.55,141.134C1469.99,141.504 1466.36,141.088 1462.78,141.322C1452.88,141.971 1443.02,142.163 1433.1,142.105C1427.84,142.073 1422.52,141.418 1417.26,141.89C1406.91,142.82 1396.48,142.513 1386.1,142.619C1384.57,142.635 1383.01,142.742 1381.46,142.688C1376.53,143.521 1371.47,143.797 1366.5,144.382C1358.94,145.272 1351.23,145.627 1343.75,146.982C1340.19,147.625 1336.77,148.876 1333.26,149.718C1327.67,151.062 1321.99,152.191 1316.38,153.481C1313.9,154.049 1311.54,154.952 1309.09,155.596C1306.97,156.152 1304.79,156.416 1302.7,157.056C1301.13,157.534 1299.28,158.421 1297.5,158.753C1293.83,160.438 1289.99,161.762 1286.2,163.108C1279.09,165.635 1271.95,168.101 1265.17,171.457C1260.15,173.944 1255.55,177.143 1250.52,179.599C1244.91,182.34 1239.35,185.133 1233.76,187.923C1230.37,189.619 1226.84,191.138 1223.62,193.172C1219.87,195.544 1215.81,198.471 1211.48,200.212C1211.25,200.605 1210.96,200.954 1210.64,201.233C1209.86,201.911 1208.84,202.274 1208,202.87C1206.98,203.587 1206.05,204.422 1205.09,205.203C1202.32,207.443 1199.14,209.089 1196.06,210.839C1194.5,211.721 1193.16,212.914 1191.61,213.802C1189.23,215.168 1186.63,216.154 1184.23,217.484C1182.81,218.266 1181.52,219.29 1180.2,220.268C1179.76,221.128 1179.23,221.936 1178.66,222.518C1177.89,223.298 1176.78,223.762 1175.86,224.328C1174.1,225.408 1172.34,226.504 1170.6,227.608C1168.1,229.187 1165.71,231.255 1163.42,233.11C1161.22,234.889 1159.74,237.082 1157.03,237.834C1156.76,238.427 1156.37,238.963 1155.84,239.405C1155.47,239.712 1155,239.859 1154.62,240.133C1153.78,240.722 1153.01,241.325 1152.09,241.786C1150.5,242.578 1148.74,244.106 1147.38,245.284C1145.37,247.029 1144.04,248.519 1142.44,250.615C1142.01,251.171 1141.64,251.883 1141.12,252.358L1140.93,252.096C1140.08,254.543 1136.63,255.185 1134.41,254.975C1133.16,254.855 1131.84,254.332 1131.39,253.053C1130.49,250.521 1131.21,247.569 1132.43,245.284C1132.98,244.258 1133.75,242.813 1134.29,241.786C1134.66,241.088 1135.23,238.356 1135.69,237.385C1136.39,235.9 1137.81,233.262 1138.33,231.708C1138.7,230.588 1139.08,229.99 1139.49,229.17C1140.14,227.333 1140.4,225.307 1141.3,223.544C1142.62,220.959 1143.8,218.243 1145.48,215.866C1146.92,213.815 1148.82,212.102 1150.32,210.084C1151.32,208.752 1152.16,206.966 1153.35,205.692C1153.33,205.612 1153.33,205.527 1153.34,205.437C1153.45,204.682 1154.49,203.79 1154.95,203.219C1156.14,201.722 1157.24,200.164 1158.39,198.629C1161.78,194.07 1166.41,190.573 1170.11,186.3C1171.35,184.868 1172.73,183.502 1173.89,182.014C1174.94,180.673 1175.84,179.023 1177.33,178.102C1177.63,177.911 1177.97,177.762 1178.32,177.643C1178.67,177.209 1179.09,176.822 1179.28,176.661C1181.67,174.643 1183.96,172.03 1186.03,169.686C1189.27,166.029 1192.24,162.076 1196.02,158.921C1200.44,155.232 1205.55,152.475 1209.9,148.655C1211.45,147.288 1213.05,145.773 1214.82,144.693C1215.65,144.187 1217.21,143.883 1217.77,143.055L1217.55,143.122C1218.59,141.573 1215.93,141.863 1214.94,141.84C1211.63,141.764 1208.32,141.812 1205.01,141.732C1196.33,141.521 1187.62,141.156 1178.94,140.906C1176.54,140.837 1174.14,140.714 1171.74,140.694C1170.88,140.687 1169.94,140.6 1169.32,140.124C1166.94,140.09 1164.56,139.964 1162.18,139.805C1161.48,139.914 1160.71,139.886 1160.13,139.944C1157.79,140.176 1155.45,140.241 1153.1,140.288C1144.87,140.454 1136.88,140.658 1128.66,140.135C1128.24,140.108 1127.83,140.084 1127.41,140.062C1126.76,140.146 1126.12,140.239 1125.49,140.342C1123.51,140.662 1121.7,141.694 1119.62,141.972C1116.62,142.373 1113.55,142.211 1110.53,142.36C1106.08,142.579 1101.59,143.085 1097.13,142.974C1088.97,142.772 1080.83,142.599 1072.67,142.572C1069.86,142.562 1066.97,143.186 1064.18,142.979C1063.96,142.963 1063.76,142.917 1063.57,142.847C1062.9,143.057 1062.23,143.247 1061.56,143.367C1058.87,143.848 1055.8,143.674 1053.09,143.702C1042.45,143.812 1031.92,142.545 1021.29,142.785C1017.8,142.864 1014.46,144.099 1010.98,144.121C1005.27,144.156 999.573,143.071 993.854,143.242C991.162,143.323 988.648,144.333 985.936,144.214C983.175,144.092 980.457,143.55 977.707,143.304C976.404,143.188 974.9,143.114 973.431,142.913C971.267,143.432 968.987,143.555 966.774,143.607C960.883,143.745 954.666,143.595 948.791,143.062C944.968,142.716 941.187,141.97 937.356,141.614C931.918,141.108 926.356,141.019 920.894,140.879C916.359,140.763 911.963,140.442 907.465,139.878C907.09,139.831 894.02,140.868 889.687,140.748C884.987,140.617 880.294,140.281 875.595,140.13C867.549,139.87 859.511,140.409 851.467,140.269C846.141,140.177 840.824,139.816 835.508,139.493C824.039,141.062 812.256,139.79 800.753,139.687C798.552,139.667 796.338,139.614 794.121,139.557C791.291,139.795 788.461,140.035 785.619,140.136C782.965,140.229 780.312,140.265 777.656,140.247C775.549,140.233 773.443,140.187 771.336,140.15L771.095,140.146C770.761,140.16 770.426,140.17 770.091,140.173C765.126,140.226 760.16,139.73 755.196,139.951C751.257,140.126 747.316,140.73 743.373,140.988C738.204,141.326 732.954,141.278 727.816,141.96C724.909,142.346 722.143,143.558 719.193,143.541C717.398,143.531 714.374,144.028 712.538,143.123C710.518,143.332 708.248,143.151 706.098,143.283C694.918,143.966 684.143,144.345 672.948,143.491C661.148,142.59 649.26,140.289 637.45,139.924C634.518,139.834 631.727,140.808 628.81,140.782C621.434,140.715 614.084,139.553 606.729,139.518C602.895,139.499 599.087,140.092 595.255,140.174C583.657,140.423 571.932,140.235 560.337,139.946C551.316,139.721 542.245,139.58 533.229,140.091C531.728,140.176 529.12,140.46 527.129,139.937C524.497,140.932 520.906,140.588 518.552,140.508C507.683,140.138 496.995,139.848 486.112,140.153C480.665,140.306 475.223,140.87 469.776,140.842C456.331,140.773 442.869,139.745 429.43,139.746C424.148,139.747 418.905,140.573 413.64,140.781C407.208,141.035 400.794,140.523 394.381,140.69C390.213,140.798 386.095,141.336 381.977,141.897Z" style="fill:white;"/>
                </g>
                <g id="Text-Silversmiths" serif:id="Text Silversmiths" transform="matrix(1.75524,1.63398e-32,3.79748e-32,1.75524,-3871.61,839.776)">
                    <g transform="matrix(16,0,0,16,2594.03,-105.328)">
                        <path d="M0.038,-0.094C0.093,-0.032 0.178,0.012 0.294,0.012C0.474,0.012 0.54,-0.087 0.54,-0.184C0.54,-0.324 0.416,-0.358 0.307,-0.387C0.222,-0.41 0.145,-0.43 0.145,-0.497C0.145,-0.56 0.202,-0.603 0.282,-0.603C0.355,-0.603 0.425,-0.578 0.475,-0.523L0.525,-0.584C0.469,-0.643 0.39,-0.677 0.288,-0.677C0.157,-0.677 0.059,-0.602 0.059,-0.492C0.059,-0.361 0.178,-0.331 0.285,-0.303C0.373,-0.279 0.454,-0.257 0.454,-0.177C0.454,-0.126 0.416,-0.062 0.297,-0.062C0.203,-0.062 0.131,-0.108 0.087,-0.157L0.038,-0.094Z" style="fill:rgb(230,230,230);fill-rule:nonzero;"/>
                    </g>
                    <g transform="matrix(16,0,0,16,2613.01,-105.328)">
                        <rect x="0.078" y="-0.667" width="0.083" height="0.667" style="fill:rgb(230,230,230);fill-rule:nonzero;"/>
                    </g>
                    <g transform="matrix(16,0,0,16,2626.43,-105.328)">
                        <path d="M0.078,-0L0.471,-0L0.471,-0.074L0.161,-0.074L0.161,-0.667L0.078,-0.667L0.078,-0Z" style="fill:rgb(230,230,230);fill-rule:nonzero;"/>
                    </g>
                    <g transform="matrix(16,0,0,16,2642.75,-105.328)">
                        <path d="M0.277,-0L0.38,-0L0.649,-0.667L0.554,-0.667L0.329,-0.091L0.104,-0.667L0.009,-0.667L0.277,-0Z" style="fill:rgb(230,230,230);fill-rule:nonzero;"/>
                    </g>
                    <g transform="matrix(16,0,0,16,2662.88,-105.328)">
                        <path d="M0.078,-0L0.515,-0L0.515,-0.074L0.161,-0.074L0.161,-0.304L0.508,-0.304L0.508,-0.378L0.161,-0.378L0.161,-0.593L0.515,-0.593L0.515,-0.667L0.078,-0.667L0.078,-0Z" style="fill:rgb(230,230,230);fill-rule:nonzero;"/>
                    </g>
                    <g transform="matrix(16,0,0,16,2681.58,-105.328)">
                        <path d="M0.464,-0L0.562,-0L0.382,-0.272C0.473,-0.28 0.555,-0.346 0.555,-0.466C0.555,-0.589 0.468,-0.667 0.346,-0.667L0.078,-0.667L0.078,-0L0.161,-0L0.161,-0.265L0.294,-0.265L0.464,-0ZM0.469,-0.466C0.469,-0.391 0.415,-0.338 0.336,-0.338L0.161,-0.338L0.161,-0.593L0.336,-0.593C0.415,-0.593 0.469,-0.541 0.469,-0.466Z" style="fill:rgb(230,230,230);fill-rule:nonzero;"/>
                    </g>
                    <g transform="matrix(16,0,0,16,2700.91,-105.328)">
                        <path d="M0.038,-0.094C0.093,-0.032 0.178,0.012 0.294,0.012C0.474,0.012 0.54,-0.087 0.54,-0.184C0.54,-0.324 0.416,-0.358 0.307,-0.387C0.222,-0.41 0.145,-0.43 0.145,-0.497C0.145,-0.56 0.202,-0.603 0.282,-0.603C0.355,-0.603 0.425,-0.578 0.475,-0.523L0.525,-0.584C0.469,-0.643 0.39,-0.677 0.288,-0.677C0.157,-0.677 0.059,-0.602 0.059,-0.492C0.059,-0.361 0.178,-0.331 0.285,-0.303C0.373,-0.279 0.454,-0.257 0.454,-0.177C0.454,-0.126 0.416,-0.062 0.297,-0.062C0.203,-0.062 0.131,-0.108 0.087,-0.157L0.038,-0.094Z" style="fill:rgb(230,230,230);fill-rule:nonzero;"/>
                    </g>
                    <g transform="matrix(16,0,0,16,2719.89,-105.328)">
                        <path d="M0.648,-0L0.731,-0L0.731,-0.667L0.612,-0.667L0.404,-0.159L0.197,-0.667L0.078,-0.667L0.078,-0L0.161,-0L0.161,-0.555L0.387,-0L0.421,-0L0.648,-0.555L0.648,-0Z" style="fill:rgb(230,230,230);fill-rule:nonzero;"/>
                    </g>
                    <g transform="matrix(16,0,0,16,2742.43,-105.328)">
                        <rect x="0.078" y="-0.667" width="0.083" height="0.667" style="fill:rgb(230,230,230);fill-rule:nonzero;"/>
                    </g>
                    <g transform="matrix(16,0,0,16,2755.86,-105.328)">
                        <path d="M0.243,-0L0.326,-0L0.326,-0.593L0.538,-0.593L0.538,-0.667L0.032,-0.667L0.032,-0.593L0.243,-0.593L0.243,-0Z" style="fill:rgb(230,230,230);fill-rule:nonzero;"/>
                    </g>
                    <g transform="matrix(16,0,0,16,2774.58,-105.328)">
                        <path d="M0.551,-0L0.634,-0L0.634,-0.667L0.551,-0.667L0.551,-0.38L0.161,-0.38L0.161,-0.667L0.078,-0.667L0.078,-0L0.161,-0L0.161,-0.306L0.551,-0.306L0.551,-0Z" style="fill:rgb(230,230,230);fill-rule:nonzero;"/>
                    </g>
                </g>
                <g id="Text-Logo" serif:id="Text Logo" transform="matrix(0.559451,0,-3.06233e-48,0.559451,435.213,271.522)">
                    <g transform="matrix(139.605,0,0,139.605,400,500)">
                        <path d="M0.177,-0.058C0.193,-0.053 0.208,-0.049 0.222,-0.046C0.237,-0.043 0.25,-0.042 0.262,-0.042C0.312,-0.042 0.352,-0.06 0.382,-0.097C0.413,-0.134 0.428,-0.183 0.428,-0.244C0.428,-0.3 0.415,-0.345 0.388,-0.378C0.362,-0.412 0.326,-0.428 0.282,-0.428C0.266,-0.428 0.25,-0.425 0.233,-0.42C0.216,-0.414 0.197,-0.406 0.177,-0.394L0.177,-0.058ZM0.023,0.218L0.023,0.182L0.077,0.177L0.093,0.161L0.093,-0.419L0.023,-0.419L0.023,-0.45L0.139,-0.486L0.177,-0.486L0.177,-0.431C0.204,-0.452 0.23,-0.467 0.254,-0.477C0.278,-0.486 0.301,-0.491 0.324,-0.491C0.38,-0.491 0.426,-0.469 0.462,-0.426C0.498,-0.382 0.516,-0.326 0.516,-0.257C0.516,-0.178 0.494,-0.115 0.449,-0.068C0.404,-0.021 0.344,0.003 0.27,0.003C0.257,0.003 0.243,0.002 0.228,0.001C0.213,-0.001 0.196,-0.003 0.177,-0.006L0.177,0.161L0.194,0.177L0.258,0.182L0.258,0.218L0.023,0.218Z" style="fill:rgb(230,230,230);fill-rule:nonzero;"/>
                    </g>
                    <g transform="matrix(139.605,0,0,139.605,504.813,500)">
                        <path d="M0.15,-0.486L0.189,-0.486L0.189,-0.057L0.206,-0.041L0.26,-0.036L0.26,-0L0.035,-0L0.035,-0.036L0.088,-0.041L0.105,-0.057L0.105,-0.419L0.035,-0.419L0.035,-0.45L0.15,-0.486ZM0.154,-0.708C0.17,-0.708 0.184,-0.702 0.195,-0.691C0.206,-0.68 0.212,-0.666 0.212,-0.65C0.212,-0.634 0.206,-0.62 0.195,-0.609C0.184,-0.598 0.17,-0.593 0.154,-0.593C0.138,-0.593 0.124,-0.598 0.113,-0.609C0.102,-0.62 0.096,-0.634 0.096,-0.65C0.096,-0.666 0.102,-0.68 0.113,-0.691C0.124,-0.702 0.138,-0.708 0.154,-0.708Z" style="fill:rgb(230,230,230);fill-rule:nonzero;"/>
                    </g>
                    <g transform="matrix(139.605,0,0,139.605,571.793,500)">
                        <path d="M0.425,-0.042C0.397,-0.026 0.369,-0.014 0.342,-0.005C0.315,0.003 0.289,0.007 0.262,0.007C0.194,0.007 0.14,-0.016 0.099,-0.061C0.058,-0.107 0.037,-0.167 0.037,-0.241C0.037,-0.315 0.059,-0.375 0.103,-0.422C0.147,-0.468 0.204,-0.491 0.274,-0.491C0.32,-0.491 0.357,-0.482 0.384,-0.465C0.41,-0.447 0.424,-0.423 0.424,-0.393C0.424,-0.377 0.419,-0.364 0.409,-0.354C0.399,-0.345 0.385,-0.34 0.368,-0.34C0.361,-0.34 0.353,-0.341 0.346,-0.344C0.338,-0.346 0.331,-0.35 0.323,-0.355L0.323,-0.437C0.315,-0.442 0.307,-0.445 0.299,-0.448C0.291,-0.45 0.283,-0.451 0.275,-0.451C0.231,-0.451 0.195,-0.433 0.168,-0.396C0.141,-0.359 0.128,-0.31 0.128,-0.248C0.128,-0.187 0.143,-0.139 0.174,-0.104C0.204,-0.069 0.245,-0.052 0.298,-0.052C0.32,-0.052 0.341,-0.055 0.362,-0.062C0.383,-0.069 0.404,-0.08 0.425,-0.094L0.425,-0.042Z" style="fill:rgb(230,230,230);fill-rule:nonzero;"/>
                    </g>
                    <g transform="matrix(139.605,0,0,139.605,661.95,500)">
                        <path d="M0.334,-0.092L0.334,-0.268C0.25,-0.245 0.195,-0.224 0.169,-0.205C0.143,-0.185 0.13,-0.16 0.13,-0.129C0.13,-0.104 0.137,-0.084 0.152,-0.069C0.166,-0.054 0.186,-0.047 0.21,-0.047C0.226,-0.047 0.244,-0.051 0.264,-0.058C0.284,-0.066 0.308,-0.077 0.334,-0.092ZM0.334,-0.058C0.302,-0.036 0.272,-0.02 0.245,-0.009C0.219,0.002 0.193,0.007 0.17,0.007C0.131,0.007 0.1,-0.005 0.077,-0.028C0.054,-0.052 0.042,-0.083 0.042,-0.121C0.042,-0.164 0.059,-0.197 0.094,-0.222C0.129,-0.246 0.209,-0.273 0.334,-0.303L0.334,-0.335C0.334,-0.377 0.327,-0.406 0.313,-0.422C0.3,-0.439 0.276,-0.447 0.242,-0.447C0.229,-0.447 0.217,-0.445 0.205,-0.443C0.192,-0.44 0.179,-0.436 0.166,-0.431L0.166,-0.347L0.097,-0.347C0.085,-0.347 0.077,-0.349 0.073,-0.354C0.068,-0.358 0.066,-0.366 0.066,-0.378C0.066,-0.41 0.085,-0.438 0.122,-0.459C0.16,-0.48 0.208,-0.491 0.268,-0.491C0.32,-0.491 0.359,-0.48 0.382,-0.457C0.406,-0.434 0.418,-0.398 0.418,-0.347L0.418,-0.057L0.435,-0.041L0.488,-0.036L0.488,-0L0.347,-0L0.334,-0.058Z" style="fill:rgb(230,230,230);fill-rule:nonzero;"/>
                    </g>
                    <g transform="matrix(139.605,0,0,139.605,760.627,500)">
                        <path d="M0.119,-0.067C0.134,-0.058 0.149,-0.051 0.163,-0.047C0.177,-0.042 0.191,-0.04 0.205,-0.04C0.227,-0.04 0.248,-0.045 0.266,-0.055C0.285,-0.065 0.302,-0.081 0.317,-0.101C0.335,-0.125 0.349,-0.156 0.361,-0.193C0.372,-0.231 0.378,-0.269 0.378,-0.306C0.378,-0.345 0.37,-0.375 0.354,-0.397C0.338,-0.419 0.316,-0.43 0.288,-0.43C0.273,-0.43 0.256,-0.426 0.238,-0.417C0.22,-0.408 0.199,-0.395 0.176,-0.377L0.119,-0.067ZM0.169,-0.482L0.195,-0.482L0.183,-0.421C0.212,-0.441 0.239,-0.457 0.264,-0.467C0.289,-0.477 0.313,-0.482 0.334,-0.482C0.374,-0.482 0.406,-0.467 0.428,-0.437C0.45,-0.406 0.461,-0.363 0.461,-0.308C0.461,-0.265 0.454,-0.225 0.44,-0.188C0.426,-0.151 0.405,-0.117 0.376,-0.085C0.351,-0.057 0.321,-0.035 0.288,-0.02C0.254,-0.004 0.22,0.004 0.186,0.004C0.174,0.004 0.161,0.002 0.148,-0.001C0.135,-0.004 0.122,-0.009 0.109,-0.015L0.076,0.171L0.171,0.188L0.171,0.218L-0.069,0.218L-0.069,0.188L-0.01,0.176L0,0.165L0.105,-0.417L0.027,-0.427L0.027,-0.452L0.169,-0.482Z" style="fill:rgb(230,230,230);fill-rule:nonzero;"/>
                    </g>
                    <g transform="matrix(139.605,0,0,139.605,860.6,500)">
                        <path d="M0.181,-0.482L0.207,-0.482L0.135,-0.108C0.134,-0.102 0.133,-0.097 0.133,-0.093C0.132,-0.089 0.132,-0.086 0.132,-0.083C0.132,-0.07 0.136,-0.061 0.144,-0.054C0.152,-0.047 0.164,-0.044 0.18,-0.044C0.189,-0.044 0.2,-0.045 0.212,-0.048C0.224,-0.05 0.238,-0.054 0.254,-0.059L0.254,-0.028C0.226,-0.016 0.201,-0.008 0.177,-0.002C0.153,0.004 0.132,0.007 0.113,0.007C0.092,0.007 0.076,0.001 0.065,-0.01C0.054,-0.02 0.049,-0.037 0.049,-0.059C0.049,-0.065 0.049,-0.073 0.051,-0.082C0.052,-0.09 0.053,-0.1 0.055,-0.111L0.114,-0.409L0.033,-0.424L0.033,-0.45L0.181,-0.482ZM0.201,-0.704C0.215,-0.704 0.228,-0.699 0.239,-0.688C0.25,-0.677 0.255,-0.665 0.255,-0.65C0.255,-0.635 0.25,-0.623 0.239,-0.612C0.228,-0.601 0.216,-0.596 0.201,-0.596C0.186,-0.596 0.173,-0.601 0.163,-0.612C0.152,-0.622 0.147,-0.635 0.147,-0.65C0.147,-0.665 0.152,-0.678 0.163,-0.688C0.173,-0.699 0.186,-0.704 0.201,-0.704Z" style="fill:rgb(230,230,230);fill-rule:nonzero;"/>
                    </g>
                    <g transform="matrix(139.605,0,0,139.605,928.603,500)">
                        <path d="M0.307,-0.36L0.249,-0.436L0.244,-0.436C0.202,-0.436 0.166,-0.412 0.137,-0.365C0.109,-0.317 0.094,-0.258 0.094,-0.186C0.094,-0.143 0.103,-0.11 0.121,-0.086C0.138,-0.062 0.163,-0.05 0.194,-0.05C0.218,-0.05 0.243,-0.057 0.27,-0.072C0.297,-0.086 0.324,-0.106 0.35,-0.133L0.35,-0.087C0.32,-0.056 0.289,-0.032 0.257,-0.015C0.225,0.001 0.194,0.01 0.163,0.01C0.118,0.01 0.082,-0.007 0.055,-0.04C0.029,-0.072 0.015,-0.117 0.015,-0.172C0.015,-0.216 0.022,-0.257 0.036,-0.296C0.051,-0.335 0.071,-0.369 0.098,-0.398C0.123,-0.426 0.151,-0.447 0.183,-0.462C0.214,-0.477 0.245,-0.485 0.277,-0.485C0.304,-0.485 0.326,-0.478 0.344,-0.465C0.361,-0.451 0.37,-0.435 0.37,-0.415C0.37,-0.399 0.364,-0.386 0.353,-0.376C0.341,-0.366 0.326,-0.361 0.307,-0.36Z" style="fill:rgb(230,230,230);fill-rule:nonzero;"/>
                    </g>
                    <g transform="matrix(139.605,0,0,139.605,1011.53,500)">
                        <path d="M0.317,-0.443L0.303,-0.443C0.244,-0.443 0.195,-0.417 0.157,-0.366C0.119,-0.316 0.1,-0.251 0.1,-0.172C0.1,-0.132 0.107,-0.102 0.122,-0.082C0.136,-0.062 0.158,-0.052 0.187,-0.052C0.206,-0.052 0.225,-0.057 0.245,-0.068C0.264,-0.079 0.284,-0.096 0.305,-0.118L0.357,-0.382L0.317,-0.443ZM0.41,-0.482L0.462,-0.482C0.457,-0.471 0.451,-0.454 0.445,-0.429C0.438,-0.405 0.431,-0.375 0.424,-0.339L0.388,-0.162C0.385,-0.146 0.382,-0.133 0.381,-0.121C0.379,-0.109 0.378,-0.099 0.378,-0.092C0.378,-0.076 0.382,-0.065 0.391,-0.057C0.399,-0.05 0.413,-0.046 0.432,-0.046C0.436,-0.046 0.441,-0.046 0.448,-0.048C0.455,-0.049 0.468,-0.052 0.488,-0.056L0.488,-0.026C0.46,-0.014 0.436,-0.005 0.415,0C0.395,0.006 0.378,0.009 0.365,0.009C0.344,0.009 0.329,0.003 0.319,-0.01C0.309,-0.022 0.304,-0.041 0.304,-0.067L0.304,-0.075C0.277,-0.047 0.251,-0.025 0.227,-0.012C0.203,0.002 0.179,0.009 0.155,0.009C0.112,0.009 0.079,-0.007 0.054,-0.038C0.029,-0.069 0.017,-0.111 0.017,-0.166C0.017,-0.199 0.021,-0.231 0.03,-0.262C0.039,-0.293 0.052,-0.322 0.069,-0.351C0.095,-0.393 0.127,-0.426 0.167,-0.448C0.207,-0.471 0.251,-0.482 0.3,-0.482C0.314,-0.482 0.329,-0.48 0.345,-0.476C0.36,-0.473 0.375,-0.467 0.39,-0.46L0.41,-0.482Z" style="fill:rgb(230,230,230);fill-rule:nonzero;"/>
                    </g>
                </g>
            </g>
        </g>
    </g>
</svg>
